<?xml version="1.0" standalone="no"?>
<!DOCTYPE svg PUBLIC "-//W3C//DTD SVG 20010904//EN"
 "http://www.w3.org/TR/2001/REC-SVG-20010904/DTD/svg10.dtd">
<svg version="1.0" xmlns="http://www.w3.org/2000/svg"
 width="1042.000000pt" height="412.000000pt" viewBox="0 0 1042.000000 412.000000"
 preserveAspectRatio="xMidYMid meet">

<g transform="translate(0.000000,412.000000) scale(0.100000,-0.100000)"
fill="#000000" stroke="none">
<path d="M5186 4009 c-2 -8 -7 -39 -10 -70 -5 -44 -2 -59 10 -70 25 -20 36 7
30 75 -4 58 -21 94 -30 65z"/>
<path d="M5185 3778 c-10 -36 -18 -79 -22 -134 -5 -64 10 -93 42 -80 30 11 35
52 18 141 -15 79 -28 103 -38 73z"/>
<path d="M3882 3507 c-56 -69 -182 -349 -182 -405 0 -12 -4 -24 -10 -27 -5 -3
-10 -20 -10 -36 0 -17 -5 -39 -10 -49 -14 -26 -15 -457 -2 -490 6 -14 16 -52
23 -85 7 -33 15 -64 19 -70 3 -5 13 -30 20 -55 7 -25 16 -49 20 -55 4 -5 22
-46 40 -90 52 -123 94 -186 223 -340 78 -94 201 -203 325 -289 50 -35 233
-126 253 -126 5 0 17 -4 27 -9 31 -16 66 -29 107 -42 22 -6 50 -15 63 -20 13
-5 33 -9 45 -9 13 0 27 -4 32 -9 17 -16 115 -23 325 -23 210 0 308 7 325 23 5
5 22 9 37 9 16 0 36 4 46 9 9 5 49 19 87 31 91 29 270 111 339 155 172 110
393 336 495 505 50 84 141 290 141 321 0 10 4 20 9 23 5 3 11 20 14 38 4 18
11 58 17 88 47 235 27 517 -50 725 -12 33 -24 69 -28 79 -7 25 -100 207 -114
224 -20 23 -19 5 2 -44 20 -46 72 -158 91 -196 5 -10 9 -25 9 -33 0 -8 4 -23
9 -33 8 -16 15 -37 40 -139 34 -133 34 -413 1 -545 -28 -111 -41 -154 -60
-203 -24 -65 -117 -240 -158 -300 -89 -129 -271 -268 -472 -359 -93 -42 -112
-49 -215 -76 -138 -36 -218 -45 -410 -44 -190 0 -326 14 -354 37 -11 9 36 13
225 18 131 4 264 12 294 18 30 7 72 15 93 18 20 3 40 9 43 14 3 5 15 9 26 9
38 0 243 76 318 117 124 69 285 206 353 301 124 175 161 247 205 407 29 107
35 182 28 385 -8 229 -12 270 -32 270 -10 0 -14 -47 -18 -227 -7 -350 -26
-464 -103 -618 -65 -129 -211 -304 -325 -390 -74 -55 -259 -147 -353 -176 -22
-6 -50 -15 -63 -20 -13 -5 -36 -9 -52 -9 -16 0 -31 -4 -34 -9 -10 -15 -264
-23 -376 -12 -159 16 -191 22 -187 35 2 7 53 12 158 13 177 2 394 25 413 44 6
5 22 9 37 9 15 0 31 5 34 10 3 6 15 10 26 10 22 0 183 72 236 105 18 11 53 33
79 49 117 73 254 236 315 373 44 100 46 104 59 153 7 25 17 56 23 70 7 16 12
143 15 340 5 358 -3 520 -23 520 -15 0 -20 -93 -28 -556 -3 -165 -9 -269 -16
-282 -6 -12 -13 -34 -15 -49 -8 -55 -92 -246 -139 -316 -111 -164 -280 -297
-454 -357 -58 -20 -83 -20 -83 -2 0 4 26 23 58 42 70 41 66 39 61 45 -3 2 -32
-8 -65 -24 -138 -67 -254 -91 -444 -91 -135 0 -190 9 -190 30 0 6 49 10 134
10 79 0 137 4 141 10 3 6 17 10 29 10 31 0 112 31 225 88 72 36 110 63 164
117 69 68 185 215 194 245 5 14 12 33 32 83 28 67 36 142 36 344 0 155 -3 215
-12 224 -7 7 -16 9 -20 5 -5 -4 -11 -92 -15 -194 -13 -371 -45 -468 -213 -636
-73 -73 -108 -99 -176 -133 -46 -23 -100 -46 -119 -52 -19 -5 -53 -15 -75 -21
-46 -13 -125 -10 -126 5 0 6 46 24 103 41 252 73 419 228 518 479 38 98 51
228 35 355 -7 62 -7 61 -69 190 -58 121 -110 190 -200 263 -97 80 -177 121
-283 146 -157 37 -375 23 -499 -31 -91 -39 -231 -153 -299 -243 -35 -45 -98
-170 -114 -225 -7 -25 -18 -58 -24 -73 -5 -16 -11 -90 -12 -165 -1 -75 -3
-139 -4 -142 0 -2 -6 1 -12 7 -21 21 -41 128 -51 263 -5 74 -11 169 -14 210
-6 88 -11 107 -24 94 -5 -5 -12 -77 -15 -159 -10 -281 -15 -368 -19 -372 -10
-10 -23 8 -33 44 -27 92 -33 158 -34 371 -1 304 -9 396 -31 400 -17 3 -18 -21
-20 -375 -1 -208 -2 -393 -2 -412 -1 -38 -19 -52 -31 -24 -16 36 -27 143 -34
318 -6 181 -16 233 -42 208 -7 -7 -15 -94 -23 -251 -6 -132 -14 -244 -19 -248
-15 -15 -31 17 -40 79 -5 34 -12 206 -15 382 -6 284 -9 320 -23 323 -9 2 -20
-5 -25 -15 -5 -10 -10 -195 -12 -410 -2 -216 -7 -393 -11 -393 -26 0 -41 107
-50 345 -4 105 -8 191 -9 193 -5 5 -32 1 -33 -5 0 -5 -2 -19 -4 -33 -4 -28
-24 -341 -28 -434 -1 -37 -7 -61 -14 -64 -8 -2 -13 6 -13 20 0 13 -5 29 -12
36 -18 18 -17 422 1 482 32 105 54 168 72 207 10 24 19 47 19 53 0 5 5 10 10
10 6 0 10 7 10 15 0 8 13 43 30 77 16 34 28 63 27 64 -1 1 -17 -17 -35 -39z
m1460 -423 c111 -39 191 -112 245 -223 35 -71 36 -80 36 -175 -1 -102 -8 -131
-51 -213 -51 -97 -179 -187 -297 -209 -91 -16 -172 -4 -264 41 -123 60 -206
170 -236 310 -12 60 -11 73 10 175 20 89 114 216 196 262 79 44 129 55 227 51
51 -2 111 -11 134 -19z m-417 -1344 c3 -5 1 -10 -4 -10 -6 0 -11 5 -11 10 0 6
2 10 4 10 3 0 8 -4 11 -10z m47 -22 c-9 -9 -15 -9 -24 0 -9 9 -7 12 12 12 19
0 21 -3 12 -12z m1138 -57 c0 -44 -359 -214 -502 -237 -185 -30 -653 -15 -665
21 -2 6 81 10 234 10 154 0 261 5 303 13 36 7 88 17 115 23 28 5 65 12 83 16
18 3 35 9 38 14 3 5 16 9 29 9 13 0 27 5 30 10 3 6 16 10 29 10 12 0 26 4 32
8 5 5 36 19 69 32 33 13 83 36 110 51 50 27 95 36 95 20z m-1210 -51 c0 -5 -2
-10 -4 -10 -3 0 -8 5 -11 10 -3 6 -1 10 4 10 6 0 11 -4 11 -10z"/>
<path d="M5111 2776 c-27 -27 -35 -45 -38 -83 -4 -42 -1 -53 27 -90 33 -44 46
-49 120 -44 42 3 65 22 92 75 18 35 19 44 8 77 -7 21 -26 52 -43 69 -25 26
-37 30 -81 30 -46 0 -56 -4 -85 -34z"/>
<path d="M6126 3339 c-3 -34 -6 -215 -6 -403 0 -412 -10 -486 -77 -621 -38
-76 -86 -160 -101 -178 -8 -9 -13 -20 -10 -23 3 -3 29 19 58 48 34 35 65 80
92 138 94 199 101 251 94 650 -6 356 -12 450 -30 450 -9 0 -15 -22 -20 -61z"/>
<path d="M6253 3108 c-4 -7 -9 -143 -11 -303 -1 -159 -5 -307 -9 -327 -6 -39
12 -55 23 -20 3 9 10 25 15 34 5 10 9 28 9 41 0 13 6 29 12 35 10 10 12 71 10
250 -1 130 -6 250 -10 266 -9 33 -26 44 -39 24z"/>
<path d="M6 739 c-3 -17 -6 -94 -6 -170 0 -112 3 -139 14 -139 11 0 13 27 11
148 -1 86 2 152 8 160 12 15 259 17 288 2 10 -6 28 -28 38 -49 19 -37 19 -39
2 -72 -21 -40 -72 -69 -121 -69 l-35 0 31 -19 c17 -10 39 -29 50 -43 27 -33
75 -69 85 -63 4 3 -10 22 -31 42 -49 44 -50 64 -4 86 65 32 82 127 30 176 -35
33 -79 41 -222 41 l-131 0 -7 -31z"/>
<path d="M495 738 c-3 -18 -5 -96 -3 -173 l3 -140 174 0 c125 0 175 3 178 12
3 8 -38 12 -152 15 -125 2 -158 6 -165 18 -15 23 -13 257 3 267 6 4 81 10 165
11 83 2 152 8 152 13 0 5 -76 9 -175 9 l-174 0 -6 -32z"/>
<path d="M947 764 c-4 -4 -7 -83 -7 -176 0 -131 3 -169 13 -166 9 4 13 47 15
162 2 145 -4 197 -21 180z"/>
<path d="M1447 733 c-4 -21 -7 -64 -7 -95 0 -32 -4 -58 -8 -58 -4 0 -35 26
-67 58 -73 69 -179 125 -233 120 l-37 -3 -3 -162 c-2 -107 1 -163 8 -163 6 0
10 54 10 149 0 168 4 178 60 158 129 -46 228 -147 263 -267 23 -78 32 -45 35
122 2 154 -8 223 -21 141z"/>
<path d="M1926 748 c-8 -13 -39 -69 -69 -126 -30 -57 -64 -115 -75 -130 l-21
-27 -18 22 c-10 13 -29 44 -43 70 -61 118 -112 203 -120 203 -8 0 55 -136 139
-297 36 -71 44 -65 135 107 25 47 58 108 73 135 37 66 36 65 24 65 -6 0 -17
-10 -25 -22z"/>
<path d="M2050 595 l0 -175 175 0 c149 0 175 2 175 15 0 13 -22 15 -141 15
-77 0 -149 5 -160 10 -17 10 -19 22 -19 144 0 113 2 135 16 140 9 3 81 6 160
6 89 0 144 4 144 10 0 6 -65 10 -175 10 l-175 0 0 -175z"/>
<path d="M2501 752 c-5 -10 -9 -87 -8 -172 2 -130 4 -155 17 -155 10 0 15 11
16 35 0 19 1 91 2 159 l2 124 40 -7 c117 -19 259 -158 279 -274 3 -18 11 -33
16 -32 14 0 19 330 5 330 -5 0 -11 -21 -11 -47 -2 -82 -6 -123 -12 -129 -3 -3
-32 20 -64 52 -90 89 -259 158 -282 116z"/>
<path d="M2970 761 c0 -4 39 -11 87 -15 51 -4 90 -12 95 -19 4 -6 9 -77 10
-157 l2 -145 5 152 c3 83 10 155 14 160 5 4 47 10 93 12 46 1 81 7 78 12 -7
11 -384 12 -384 0z"/>
<path d="M3558 760 c-40 -12 -86 -48 -103 -80 -17 -32 -22 -250 -6 -250 5 0 8
37 7 83 -3 105 6 142 41 179 47 50 73 58 182 58 55 0 106 -3 115 -6 13 -5 16
-22 16 -79 0 -96 -4 -105 -49 -106 -20 -1 -49 -5 -66 -9 -24 -6 -18 -8 32 -9
69 -1 75 -6 83 -69 3 -23 10 -43 15 -42 11 0 20 255 10 308 l-6 32 -122 -1
c-67 0 -134 -4 -149 -9z"/>
<path d="M3948 722 c-7 -92 4 -303 16 -299 7 2 12 55 14 159 2 124 5 157 17
161 18 8 138 -51 189 -92 62 -50 107 -124 132 -219 2 -7 8 -10 14 -7 12 8 14
335 1 335 -12 0 -21 -51 -21 -116 0 -29 -5 -56 -11 -60 -6 -3 -38 20 -73 54
-65 65 -158 115 -232 126 l-42 6 -4 -48z"/>
<path d="M4458 764 c-12 -11 -10 -332 2 -339 7 -4 10 48 10 149 0 143 1 156
19 166 11 5 73 10 138 10 117 0 119 0 155 -31 82 -67 70 -202 -22 -249 -31
-16 -59 -20 -135 -20 -73 0 -96 -3 -93 -12 3 -9 35 -14 101 -16 88 -2 100 -1
136 22 45 29 72 65 90 121 12 37 11 46 -12 96 -40 90 -70 103 -242 107 -77 2
-143 0 -147 -4z"/>
<path d="M5023 750 c-51 -26 -78 -68 -88 -133 -8 -58 8 -98 57 -142 54 -49 72
-55 163 -55 74 0 91 3 125 25 49 31 90 99 90 150 0 51 -34 119 -72 147 -26 18
-48 22 -132 25 -89 4 -106 2 -143 -17z m274 -35 c34 -29 43 -44 49 -80 10 -67
-12 -123 -61 -157 -36 -25 -48 -27 -131 -28 -78 0 -96 3 -125 23 -67 44 -91
148 -48 209 39 54 70 66 178 67 l97 2 41 -36z"/>
<path d="M5677 763 c-11 -11 -8 -331 3 -338 9 -6 17 178 11 263 -4 59 5 62
175 62 96 0 154 4 154 10 0 11 -332 14 -343 3z"/>
<path d="M6105 748 c-3 -13 -4 -89 -3 -171 4 -196 22 -196 26 0 1 87 7 152 14
160 8 10 46 13 145 13 l135 0 29 -31 c67 -72 17 -156 -100 -171 -22 -3 -17 -9
48 -67 79 -71 103 -78 41 -12 -22 23 -40 46 -40 51 0 4 16 18 35 30 47 29 65
57 65 103 0 51 -31 94 -78 107 -20 5 -99 10 -174 10 -134 0 -138 -1 -143 -22z"/>
<path d="M6605 748 c-3 -13 -4 -90 -3 -173 l3 -150 169 0 c127 0 170 3 174 13
3 9 -31 12 -146 12 -124 0 -153 3 -166 16 -13 12 -16 40 -16 138 0 81 4 126
12 134 8 8 59 12 166 12 99 0 151 3 147 10 -4 6 -72 10 -170 10 -162 0 -165 0
-170 -22z"/>
<path d="M7125 755 c-22 -8 -48 -24 -57 -35 -39 -48 -44 -134 -12 -210 10 -25
30 -44 64 -63 47 -26 54 -28 166 -25 83 2 119 7 122 16 3 9 -26 12 -125 12
-111 0 -132 3 -161 20 -44 27 -66 80 -59 146 6 61 18 83 61 112 29 20 45 22
160 22 82 0 125 4 121 10 -10 16 -233 12 -280 -5z"/>
<path d="M7846 718 c-3 -29 -6 -79 -6 -111 0 -44 -5 -67 -21 -88 -43 -61 -137
-85 -210 -55 -62 26 -91 74 -100 166 l-6 65 -1 -68 c-2 -49 3 -78 17 -105 21
-41 64 -82 85 -82 8 0 18 -4 21 -10 3 -5 27 -10 53 -10 62 1 130 36 164 86 26
37 27 46 28 152 0 117 -13 150 -24 60z"/>
<path d="M7984 757 c-2 -7 -3 -85 -2 -172 l3 -160 173 0 c222 0 238 18 22 25
-85 3 -161 9 -167 13 -9 6 -13 45 -13 137 0 118 2 130 19 140 11 5 84 10 165
10 91 0 146 4 146 10 0 16 -339 13 -346 -3z"/>
<path d="M8426 746 c-10 -37 -7 -314 4 -321 16 -10 18 10 23 163 4 158 10 173
54 153 26 -12 36 -17 88 -45 76 -41 140 -116 180 -213 l24 -58 -1 170 c-1 133
-3 151 -7 83 -3 -47 -9 -90 -13 -94 -5 -4 -37 20 -72 54 -69 66 -161 116 -233
125 -36 4 -42 2 -47 -17z"/>
<path d="M9007 756 c-20 -8 -44 -19 -52 -26 -49 -41 -61 -157 -22 -224 13 -22
40 -49 65 -63 40 -22 53 -23 163 -21 163 4 159 22 -6 28 -137 5 -159 12 -194
56 -26 33 -29 130 -6 174 29 56 69 70 204 70 74 0 121 4 121 10 0 15 -228 12
-273 -4z"/>
<path d="M9386 760 c-11 -25 -3 -335 9 -335 6 0 11 42 13 100 3 111 -11 259
-22 235z"/>
<path d="M9641 760 c-44 -10 -81 -39 -106 -81 -16 -27 -19 -52 -20 -141 0
-148 19 -146 25 2 6 130 15 152 77 187 31 17 57 21 144 22 129 2 139 -4 139
-84 0 -83 -12 -105 -57 -106 -21 -1 -51 -5 -68 -9 -24 -6 -17 -8 32 -9 55 -1
65 -4 79 -26 9 -14 14 -36 12 -50 -3 -14 -1 -28 4 -31 5 -3 7 66 6 163 l-3
168 -115 2 c-63 1 -130 -2 -149 -7z"/>
<path d="M10060 752 c-34 -16 -35 -19 -35 -72 0 -53 1 -56 35 -72 28 -14 61
-18 163 -18 114 0 129 -2 147 -20 34 -34 25 -82 -21 -105 -21 -11 -66 -15
-179 -15 -117 0 -151 -3 -148 -12 4 -10 47 -14 162 -16 l157 -3 35 35 c42 42
45 81 9 120 -36 39 -65 46 -194 46 -78 0 -121 4 -129 12 -7 7 -12 29 -12 49 0
62 20 69 187 69 89 0 143 4 143 10 0 6 -54 10 -142 10 -116 0 -150 -3 -178
-18z"/>
<path d="M580 605 c0 -12 19 -15 109 -15 61 0 112 4 115 9 9 14 -32 21 -131
21 -76 0 -93 -3 -93 -15z"/>
<path d="M2137 613 c-19 -18 3 -23 108 -23 107 0 145 10 93 24 -31 8 -193 8
-201 -1z"/>
<path d="M5747 613 c-19 -18 3 -23 108 -23 111 0 149 11 84 24 -42 8 -184 8
-192 -1z"/>
<path d="M6697 613 c-19 -18 2 -23 98 -23 99 0 134 10 83 24 -31 8 -173 8
-181 -1z"/>
<path d="M8067 614 c-17 -17 12 -24 103 -24 95 0 135 11 87 24 -30 8 -182 8
-190 0z"/>
<path d="M5721 164 c0 -11 3 -14 6 -6 3 7 2 16 -1 19 -3 4 -6 -2 -5 -13z"/>
</g>
</svg>
